<svg width="45" height="34" viewBox="0 0 45 34" fill="none" xmlns="http://www.w3.org/2000/svg">
<path d="M25.5 2L26.3053 0.490566V3.01348H23.7656L25.5 2ZM26.3053 0.490566L27 2L28.8449 3.01348H26.3053V0.490566ZM26.3053 3.01348H28.8449L28 5.5L26.3053 5.53639V3.01348ZM26.3053 5.53639L28 5.5L28.8449 8.0593H26.3053V5.53639ZM26.3053 8.0593H28.8449V10.5822H26.3053V8.0593ZM23.7656 8.0593H26.3053V10.5822H23.7656V8.0593ZM24.5 5.5L26.3053 5.53639V8.0593H23.7656L24.5 5.5ZM23.7656 3.01348H26.3053V5.53639L24.5 5.5L23.7656 3.01348ZM23.7656 10.5822H26.3053V13.1051H23.7656V10.5822ZM23.7656 13.1051H26.3053V15.628H23.7656V13.1051ZM23.7656 15.628H26.3053V18.1509H23.7656V15.628ZM23.7656 18.1509H26.3053V20.6739H23.7656V18.1509ZM23.7656 20.6739H26.3053V23.1968H23.7656V20.6739ZM23.7656 23.1968H26.3053L25.3064 25.7197L23.7656 33.5V23.1968ZM26.3053 23.1968H28.8449V25.7197L28 24L26.3053 23.1968ZM26.3053 20.6739H28.8449V23.1968H26.3053V20.6739ZM26.3053 18.1509H28.8449V20.6739H26.3053V18.1509ZM26.3053 15.628H28.8449V18.1509H26.3053V15.628ZM26.3053 13.1051H28.8449V15.628H26.3053V13.1051ZM26.3053 10.5822H28.8449V13.1051H26.3053V10.5822ZM28.8449 13.1051L30 14L31.3846 13.1051V15.628L30 15L28.8449 15.628V13.1051ZM31.3846 13.1051H33.9243L32 14.5L33.9243 15.628H31.3846V13.1051ZM32 11L33.9243 10.5822V13.1051H31.3846L32 11ZM33.9243 10.5822H36.4639L37 13.5L33.9243 13.1051V10.5822ZM33.9243 8.0593H36.4639V10.5822H33.9243V8.0593ZM33.9243 5.53639L36.4639 4.41509V8.0593H33.9243V5.53639ZM36.4639 4.41509L45 0L39.0036 8.0593H36.4639V4.41509ZM36.4639 8.0593H39.0036V10.5822H36.4639V8.0593ZM31.3846 15.628H33.9243V18.1509L32 18L31.3846 15.628ZM33.9243 15.628L37 15L36.4639 18.1509H33.9243V15.628ZM36.4639 18.1509H39.0036V20.6739H36.4639V18.1509ZM33.9243 18.1509H36.4639V20.6739H35.5L33.9243 18.1509ZM35.5 20.6739H36.4639V23.1968H33.9243L35.5 20.6739ZM36.4639 20.6739H39.0036V23.1968H36.4639V20.6739ZM36.4639 23.1968H39.0036L44.5062 25.7197H36.4639V23.1968ZM33.9243 23.1968H36.4639V25.7197L36 24L33.9243 23.1968Z" fill="white"/>
<path d="M5.07932 3.43359H7.61898V6.25435H5.07932V3.43359ZM2.53966 3.43359H5.07932V6.25435H2.53966V3.43359ZM2.53966 6.25435H5.07932L4.44441 8.33925L2.53966 9.0751V6.25435ZM5.07932 6.25435H7.61898V9.0751L4.44441 8.33925L5.07932 6.25435ZM7.61898 3.43359H10.1586V6.25435H7.61898V3.43359ZM10.1586 3.43359H12.6983V6.25435H10.1586V3.43359ZM12.6983 3.43359H15.238V6.25435H12.6983V3.43359ZM12.6983 6.25435H15.238V9.0751L13.3332 8.33925L12.6983 6.25435ZM10.1586 6.25435H12.6983L13.3332 8.33925L10.1586 9.0751V6.25435ZM15.238 6.25435L17.2838 6.86756L17.7776 9.0751H15.238V6.25435ZM15.238 9.0751H17.7776V11.8959H15.238V9.0751ZM17.7776 17.5374L28.5 12.5L18 20.3581H15.238L17.7776 17.5374ZM15.238 20.3581H18L17.2838 22.5657L15.238 23.1789V20.3581ZM13.3332 21.094L15.238 20.3581V23.1789H12.6983L13.3332 21.094ZM12.6983 17.5374H17.7776L15.238 20.3581L13.3332 21.094L12.6983 17.5374ZM13.3332 8.33925L15.238 9.0751V11.8959H12.6983L13.3332 8.33925ZM10.1586 20.3581L13.3332 21.094L12.6983 23.1789H10.1586V20.3581ZM12.6983 23.1789H15.238V25.9996H12.6983V23.1789ZM10.1586 23.1789H12.6983V25.9996H10.1586V23.1789ZM7.61898 23.1789H10.1586V25.9996H7.61898V23.1789ZM5.07932 23.1789H7.61898V25.9996H5.07932V23.1789ZM2.53966 23.1789H5.07932V25.9996H2.53966V23.1789ZM2.53966 20.3581L4.44441 21.094L5.07932 23.1789H2.53966V20.3581ZM4.44441 21.094L7.61898 20.3581V23.1789H5.07932L4.44441 21.094ZM2.53966 17.5374H5.07932L4.44441 21.094L2.53966 20.3581V17.5374ZM0 20.3581H2.53966V23.1789L0.493823 22.5657L0 20.3581ZM0 17.5374H2.53966V20.3581H0V17.5374ZM0 14.7166H2.53966V17.5374H0V14.7166ZM0 11.8959H2.53966V14.7166H0V11.8959ZM0 9.0751H2.53966V11.8959H0V9.0751ZM0.493823 7.35812L2.53966 6.25435V9.0751H0L0.493823 7.35812ZM2.53966 9.0751L4.44441 8.33925L5.07932 11.8959H2.53966V9.0751ZM2.53966 11.8959H5.07932L4.44441 14.7166H2.53966V11.8959ZM2.53966 14.7166H4.44441L5.07932 17.5374H2.53966V14.7166ZM7.61898 20.3581H10.1586V23.1789H7.61898V20.3581ZM7.61898 6.25435H10.1586V9.0751H7.61898V6.25435Z" fill="white"/>
</svg>
